<svg xmlns="http://www.w3.org/2000/svg" width="24" height="24"><path d="M5.072 0A5.061 5.061 0 0 0 0 5.072v13.856A5.061 5.061 0 0 0 5.072 24h13.856A5.061 5.061 0 0 0 24 18.928V5.072A5.061 5.061 0 0 0 18.928 0H5.072zm5.487 6.006h.933l3.336 4.78c.092.13.249.212.408.212h3.489c.562 0 1 .437 1 1a.987.987 0 0 1-1 1H15.27a.51.51 0 0 0-.408.215l-3.347 4.781h-.938l2.104-4.275c.149-.304-.111-.721-.45-.721H7.914a.509.509 0 0 0-.418.227l-.51.773H6l.738-1.81a.506.506 0 0 0 0-.377L6 9.998h.984l.512.785a.51.51 0 0 0 .42.227l4.31-.014c.338 0 .597-.418.448-.72l-2.115-4.27z"/></svg>